<mxfile host="app.diagrams.net" agent="Mozilla/5.0 (Windows NT 10.0; Win64; x64) AppleWebKit/537.36 (KHTML, like Gecko) Chrome/134.0.0.0 Safari/537.36" version="26.1.1">
  <diagram name="Page-1" id="rVhgOGxeyQuXEXUFn2q0">
    <mxGraphModel dx="4198" dy="1476" grid="1" gridSize="10" guides="1" tooltips="1" connect="1" arrows="1" fold="1" page="1" pageScale="1" pageWidth="850" pageHeight="1100" math="0" shadow="0">
      <root>
        <mxCell id="0" />
        <mxCell id="1" parent="0" />
        <mxCell id="I8TiSBE5ZwDcG0NRmcf--130" value="" style="rounded=0;whiteSpace=wrap;html=1;fillColor=#FFFFCC;" vertex="1" parent="1">
          <mxGeometry x="2320" y="971" width="500" height="220" as="geometry" />
        </mxCell>
        <mxCell id="I8TiSBE5ZwDcG0NRmcf--126" value="" style="rounded=0;whiteSpace=wrap;html=1;fillColor=#FFCC99;fontStyle=1" vertex="1" parent="1">
          <mxGeometry x="1345" y="1193.5" width="735" height="140" as="geometry" />
        </mxCell>
        <mxCell id="I8TiSBE5ZwDcG0NRmcf--125" value="" style="rounded=0;whiteSpace=wrap;html=1;fillColor=#99FFFF;" vertex="1" parent="1">
          <mxGeometry x="1340" y="992" width="735" height="140" as="geometry" />
        </mxCell>
        <mxCell id="I8TiSBE5ZwDcG0NRmcf--124" value="" style="rounded=0;whiteSpace=wrap;html=1;fillColor=#CCFFCC;" vertex="1" parent="1">
          <mxGeometry x="1345" y="771" width="725" height="140" as="geometry" />
        </mxCell>
        <mxCell id="I8TiSBE5ZwDcG0NRmcf--118" value="" style="rounded=0;whiteSpace=wrap;html=1;fillColor=#FF99CC;" vertex="1" parent="1">
          <mxGeometry x="210" y="749" width="885" height="690" as="geometry" />
        </mxCell>
        <mxCell id="I8TiSBE5ZwDcG0NRmcf--39" value="" style="edgeStyle=orthogonalEdgeStyle;rounded=0;orthogonalLoop=1;jettySize=auto;html=1;" edge="1" parent="1" source="I8TiSBE5ZwDcG0NRmcf--1" target="I8TiSBE5ZwDcG0NRmcf--2">
          <mxGeometry relative="1" as="geometry" />
        </mxCell>
        <mxCell id="I8TiSBE5ZwDcG0NRmcf--1" value="START" style="ellipse;whiteSpace=wrap;html=1;" vertex="1" parent="1">
          <mxGeometry x="-460" y="330" width="120" height="80" as="geometry" />
        </mxCell>
        <mxCell id="I8TiSBE5ZwDcG0NRmcf--40" value="" style="edgeStyle=orthogonalEdgeStyle;rounded=0;orthogonalLoop=1;jettySize=auto;html=1;" edge="1" parent="1" source="I8TiSBE5ZwDcG0NRmcf--2" target="I8TiSBE5ZwDcG0NRmcf--20">
          <mxGeometry relative="1" as="geometry" />
        </mxCell>
        <mxCell id="I8TiSBE5ZwDcG0NRmcf--2" value="PAGE UPLOAD BUDGET" style="rounded=0;whiteSpace=wrap;html=1;" vertex="1" parent="1">
          <mxGeometry x="-280" y="340" width="120" height="60" as="geometry" />
        </mxCell>
        <mxCell id="I8TiSBE5ZwDcG0NRmcf--46" value="" style="edgeStyle=orthogonalEdgeStyle;rounded=0;orthogonalLoop=1;jettySize=auto;html=1;" edge="1" parent="1" source="I8TiSBE5ZwDcG0NRmcf--4" target="I8TiSBE5ZwDcG0NRmcf--6">
          <mxGeometry relative="1" as="geometry" />
        </mxCell>
        <mxCell id="I8TiSBE5ZwDcG0NRmcf--47" value="" style="edgeStyle=orthogonalEdgeStyle;rounded=0;orthogonalLoop=1;jettySize=auto;html=1;" edge="1" parent="1" source="I8TiSBE5ZwDcG0NRmcf--4" target="I8TiSBE5ZwDcG0NRmcf--5">
          <mxGeometry relative="1" as="geometry" />
        </mxCell>
        <mxCell id="I8TiSBE5ZwDcG0NRmcf--4" value="&lt;div&gt;&lt;br&gt;&lt;/div&gt;ACTION TYPE DATA&amp;nbsp;&lt;div&gt;UPLOAD&amp;nbsp;&lt;div&gt;OR&lt;/div&gt;&lt;div&gt;UPDATE?&lt;/div&gt;&lt;/div&gt;" style="rhombus;whiteSpace=wrap;html=1;" vertex="1" parent="1">
          <mxGeometry x="860" y="310" width="220" height="120" as="geometry" />
        </mxCell>
        <mxCell id="I8TiSBE5ZwDcG0NRmcf--49" value="" style="edgeStyle=orthogonalEdgeStyle;rounded=0;orthogonalLoop=1;jettySize=auto;html=1;" edge="1" parent="1" source="I8TiSBE5ZwDcG0NRmcf--5" target="I8TiSBE5ZwDcG0NRmcf--8">
          <mxGeometry relative="1" as="geometry" />
        </mxCell>
        <mxCell id="I8TiSBE5ZwDcG0NRmcf--5" value="UPDATE DATA" style="rounded=0;whiteSpace=wrap;html=1;" vertex="1" parent="1">
          <mxGeometry x="910" y="500" width="120" height="60" as="geometry" />
        </mxCell>
        <mxCell id="I8TiSBE5ZwDcG0NRmcf--48" value="" style="edgeStyle=orthogonalEdgeStyle;rounded=0;orthogonalLoop=1;jettySize=auto;html=1;" edge="1" parent="1" source="I8TiSBE5ZwDcG0NRmcf--6" target="I8TiSBE5ZwDcG0NRmcf--7">
          <mxGeometry relative="1" as="geometry" />
        </mxCell>
        <mxCell id="I8TiSBE5ZwDcG0NRmcf--6" value="UPLOAD DATA" style="rounded=0;whiteSpace=wrap;html=1;" vertex="1" parent="1">
          <mxGeometry x="910" y="190" width="120" height="60" as="geometry" />
        </mxCell>
        <mxCell id="I8TiSBE5ZwDcG0NRmcf--50" style="edgeStyle=orthogonalEdgeStyle;rounded=0;orthogonalLoop=1;jettySize=auto;html=1;" edge="1" parent="1" source="I8TiSBE5ZwDcG0NRmcf--7" target="I8TiSBE5ZwDcG0NRmcf--23">
          <mxGeometry relative="1" as="geometry" />
        </mxCell>
        <mxCell id="I8TiSBE5ZwDcG0NRmcf--7" value="UPLOAD FILE CSV WHICH ID IS NEW" style="rounded=0;whiteSpace=wrap;html=1;" vertex="1" parent="1">
          <mxGeometry x="1130" y="190" width="120" height="60" as="geometry" />
        </mxCell>
        <mxCell id="I8TiSBE5ZwDcG0NRmcf--51" style="edgeStyle=orthogonalEdgeStyle;rounded=0;orthogonalLoop=1;jettySize=auto;html=1;entryX=0.5;entryY=1;entryDx=0;entryDy=0;" edge="1" parent="1" source="I8TiSBE5ZwDcG0NRmcf--8" target="I8TiSBE5ZwDcG0NRmcf--23">
          <mxGeometry relative="1" as="geometry" />
        </mxCell>
        <mxCell id="I8TiSBE5ZwDcG0NRmcf--8" value="UPLOAD FILE CSV WHICH ID IS ALREADY EXISTED" style="rounded=0;whiteSpace=wrap;html=1;" vertex="1" parent="1">
          <mxGeometry x="1120" y="500" width="120" height="60" as="geometry" />
        </mxCell>
        <mxCell id="I8TiSBE5ZwDcG0NRmcf--62" value="" style="edgeStyle=orthogonalEdgeStyle;rounded=0;orthogonalLoop=1;jettySize=auto;html=1;" edge="1" parent="1" source="I8TiSBE5ZwDcG0NRmcf--10" target="I8TiSBE5ZwDcG0NRmcf--13">
          <mxGeometry relative="1" as="geometry" />
        </mxCell>
        <mxCell id="I8TiSBE5ZwDcG0NRmcf--10" value="PAGE VIEW" style="rounded=0;whiteSpace=wrap;html=1;" vertex="1" parent="1">
          <mxGeometry x="285" y="806" width="120" height="60" as="geometry" />
        </mxCell>
        <mxCell id="I8TiSBE5ZwDcG0NRmcf--60" value="" style="edgeStyle=orthogonalEdgeStyle;rounded=0;orthogonalLoop=1;jettySize=auto;html=1;" edge="1" parent="1" source="I8TiSBE5ZwDcG0NRmcf--12" target="I8TiSBE5ZwDcG0NRmcf--31">
          <mxGeometry relative="1" as="geometry" />
        </mxCell>
        <mxCell id="I8TiSBE5ZwDcG0NRmcf--12" value="DATA INPUT TO PAGE VIEW" style="rounded=0;whiteSpace=wrap;html=1;" vertex="1" parent="1">
          <mxGeometry x="2020" y="460" width="120" height="60" as="geometry" />
        </mxCell>
        <mxCell id="I8TiSBE5ZwDcG0NRmcf--64" value="" style="edgeStyle=orthogonalEdgeStyle;rounded=0;orthogonalLoop=1;jettySize=auto;html=1;" edge="1" parent="1" source="I8TiSBE5ZwDcG0NRmcf--13" target="I8TiSBE5ZwDcG0NRmcf--14">
          <mxGeometry relative="1" as="geometry" />
        </mxCell>
        <mxCell id="I8TiSBE5ZwDcG0NRmcf--13" value="&lt;div&gt;FILTER DATA?&lt;/div&gt;" style="rhombus;whiteSpace=wrap;html=1;" vertex="1" parent="1">
          <mxGeometry x="460" y="781" width="150" height="110" as="geometry" />
        </mxCell>
        <mxCell id="I8TiSBE5ZwDcG0NRmcf--75" value="" style="edgeStyle=orthogonalEdgeStyle;rounded=0;orthogonalLoop=1;jettySize=auto;html=1;" edge="1" parent="1" source="I8TiSBE5ZwDcG0NRmcf--14" target="I8TiSBE5ZwDcG0NRmcf--74">
          <mxGeometry relative="1" as="geometry" />
        </mxCell>
        <mxCell id="I8TiSBE5ZwDcG0NRmcf--14" value="VIEW TABLE DARI&lt;div&gt;datamart_finance.netsuite_master_budget&amp;nbsp;&lt;/div&gt;" style="rounded=0;whiteSpace=wrap;html=1;" vertex="1" parent="1">
          <mxGeometry x="408.75" y="973.5" width="252.5" height="90" as="geometry" />
        </mxCell>
        <mxCell id="I8TiSBE5ZwDcG0NRmcf--101" style="edgeStyle=orthogonalEdgeStyle;rounded=0;orthogonalLoop=1;jettySize=auto;html=1;entryX=0;entryY=0.5;entryDx=0;entryDy=0;" edge="1" parent="1" source="I8TiSBE5ZwDcG0NRmcf--15" target="I8TiSBE5ZwDcG0NRmcf--89">
          <mxGeometry relative="1" as="geometry" />
        </mxCell>
        <mxCell id="I8TiSBE5ZwDcG0NRmcf--15" value="FILTER BY YEAR" style="rounded=0;whiteSpace=wrap;html=1;" vertex="1" parent="1">
          <mxGeometry x="1450" y="810" width="150" height="51" as="geometry" />
        </mxCell>
        <mxCell id="I8TiSBE5ZwDcG0NRmcf--66" value="" style="edgeStyle=orthogonalEdgeStyle;rounded=0;orthogonalLoop=1;jettySize=auto;html=1;" edge="1" parent="1" source="I8TiSBE5ZwDcG0NRmcf--16" target="I8TiSBE5ZwDcG0NRmcf--17">
          <mxGeometry relative="1" as="geometry" />
        </mxCell>
        <mxCell id="I8TiSBE5ZwDcG0NRmcf--16" value="&lt;div&gt;DOWNLOAD DATA?&lt;/div&gt;" style="rhombus;whiteSpace=wrap;html=1;" vertex="1" parent="1">
          <mxGeometry x="2342" y="1007" width="150" height="110" as="geometry" />
        </mxCell>
        <mxCell id="I8TiSBE5ZwDcG0NRmcf--67" value="" style="edgeStyle=orthogonalEdgeStyle;rounded=0;orthogonalLoop=1;jettySize=auto;html=1;" edge="1" parent="1" source="I8TiSBE5ZwDcG0NRmcf--17" target="I8TiSBE5ZwDcG0NRmcf--18">
          <mxGeometry relative="1" as="geometry" />
        </mxCell>
        <mxCell id="I8TiSBE5ZwDcG0NRmcf--17" value="DOWNLOAD BUTTON" style="rounded=0;whiteSpace=wrap;html=1;" vertex="1" parent="1">
          <mxGeometry x="2532" y="1027.5" width="110" height="67.5" as="geometry" />
        </mxCell>
        <mxCell id="I8TiSBE5ZwDcG0NRmcf--69" value="" style="edgeStyle=orthogonalEdgeStyle;rounded=0;orthogonalLoop=1;jettySize=auto;html=1;" edge="1" parent="1" source="I8TiSBE5ZwDcG0NRmcf--18" target="I8TiSBE5ZwDcG0NRmcf--68">
          <mxGeometry relative="1" as="geometry" />
        </mxCell>
        <mxCell id="I8TiSBE5ZwDcG0NRmcf--18" value="FILE DOWNLOADED IN CSV" style="rounded=0;whiteSpace=wrap;html=1;" vertex="1" parent="1">
          <mxGeometry x="2692" y="1027.5" width="110" height="67.5" as="geometry" />
        </mxCell>
        <mxCell id="I8TiSBE5ZwDcG0NRmcf--41" value="" style="edgeStyle=orthogonalEdgeStyle;rounded=0;orthogonalLoop=1;jettySize=auto;html=1;" edge="1" parent="1" source="I8TiSBE5ZwDcG0NRmcf--20" target="I8TiSBE5ZwDcG0NRmcf--21">
          <mxGeometry relative="1" as="geometry" />
        </mxCell>
        <mxCell id="I8TiSBE5ZwDcG0NRmcf--20" value="DONWLOAD TEMPLATE&lt;div&gt;(HYPERLINK)&lt;/div&gt;" style="rounded=0;whiteSpace=wrap;html=1;" vertex="1" parent="1">
          <mxGeometry x="-100" y="340" width="120" height="60" as="geometry" />
        </mxCell>
        <mxCell id="I8TiSBE5ZwDcG0NRmcf--42" value="" style="edgeStyle=orthogonalEdgeStyle;rounded=0;orthogonalLoop=1;jettySize=auto;html=1;" edge="1" parent="1" source="I8TiSBE5ZwDcG0NRmcf--21" target="I8TiSBE5ZwDcG0NRmcf--22">
          <mxGeometry relative="1" as="geometry" />
        </mxCell>
        <mxCell id="I8TiSBE5ZwDcG0NRmcf--21" value="CSV FILE DOWNLOADED" style="rounded=0;whiteSpace=wrap;html=1;" vertex="1" parent="1">
          <mxGeometry x="80" y="340" width="120" height="60" as="geometry" />
        </mxCell>
        <mxCell id="I8TiSBE5ZwDcG0NRmcf--43" value="" style="edgeStyle=orthogonalEdgeStyle;rounded=0;orthogonalLoop=1;jettySize=auto;html=1;" edge="1" parent="1" source="I8TiSBE5ZwDcG0NRmcf--22" target="I8TiSBE5ZwDcG0NRmcf--37">
          <mxGeometry relative="1" as="geometry" />
        </mxCell>
        <mxCell id="I8TiSBE5ZwDcG0NRmcf--22" value="USER FILL THE CSV FILE BASED ON THE FORMAT WRITTEN" style="rounded=0;whiteSpace=wrap;html=1;" vertex="1" parent="1">
          <mxGeometry x="260" y="340" width="150" height="60" as="geometry" />
        </mxCell>
        <mxCell id="I8TiSBE5ZwDcG0NRmcf--52" value="" style="edgeStyle=orthogonalEdgeStyle;rounded=0;orthogonalLoop=1;jettySize=auto;html=1;" edge="1" parent="1" source="I8TiSBE5ZwDcG0NRmcf--23" target="I8TiSBE5ZwDcG0NRmcf--24">
          <mxGeometry relative="1" as="geometry" />
        </mxCell>
        <mxCell id="I8TiSBE5ZwDcG0NRmcf--23" value="USER UPLOAD CSV FILE&amp;nbsp; IN UPLOAD BUDGET FIELD" style="rounded=0;whiteSpace=wrap;html=1;" vertex="1" parent="1">
          <mxGeometry x="1310" y="350" width="120" height="60" as="geometry" />
        </mxCell>
        <mxCell id="I8TiSBE5ZwDcG0NRmcf--53" value="" style="edgeStyle=orthogonalEdgeStyle;rounded=0;orthogonalLoop=1;jettySize=auto;html=1;" edge="1" parent="1" source="I8TiSBE5ZwDcG0NRmcf--24" target="I8TiSBE5ZwDcG0NRmcf--25">
          <mxGeometry relative="1" as="geometry" />
        </mxCell>
        <mxCell id="I8TiSBE5ZwDcG0NRmcf--24" value="SYSTEM RUNS VALIDATION PROCESS" style="rounded=0;whiteSpace=wrap;html=1;" vertex="1" parent="1">
          <mxGeometry x="1490" y="350" width="120" height="60" as="geometry" />
        </mxCell>
        <mxCell id="I8TiSBE5ZwDcG0NRmcf--54" value="" style="edgeStyle=orthogonalEdgeStyle;rounded=0;orthogonalLoop=1;jettySize=auto;html=1;" edge="1" parent="1" source="I8TiSBE5ZwDcG0NRmcf--25" target="I8TiSBE5ZwDcG0NRmcf--26">
          <mxGeometry relative="1" as="geometry" />
        </mxCell>
        <mxCell id="I8TiSBE5ZwDcG0NRmcf--57" value="" style="edgeStyle=orthogonalEdgeStyle;rounded=0;orthogonalLoop=1;jettySize=auto;html=1;" edge="1" parent="1" source="I8TiSBE5ZwDcG0NRmcf--25" target="I8TiSBE5ZwDcG0NRmcf--27">
          <mxGeometry relative="1" as="geometry" />
        </mxCell>
        <mxCell id="I8TiSBE5ZwDcG0NRmcf--25" value="FIND ERROR?" style="rhombus;whiteSpace=wrap;html=1;" vertex="1" parent="1">
          <mxGeometry x="1680" y="340" width="80" height="80" as="geometry" />
        </mxCell>
        <mxCell id="I8TiSBE5ZwDcG0NRmcf--55" value="" style="edgeStyle=orthogonalEdgeStyle;rounded=0;orthogonalLoop=1;jettySize=auto;html=1;" edge="1" parent="1" source="I8TiSBE5ZwDcG0NRmcf--26" target="I8TiSBE5ZwDcG0NRmcf--29">
          <mxGeometry relative="1" as="geometry" />
        </mxCell>
        <mxCell id="I8TiSBE5ZwDcG0NRmcf--26" value="UPLOAD FAILED" style="rounded=0;whiteSpace=wrap;html=1;" vertex="1" parent="1">
          <mxGeometry x="1660" y="170" width="120" height="60" as="geometry" />
        </mxCell>
        <mxCell id="I8TiSBE5ZwDcG0NRmcf--58" value="" style="edgeStyle=orthogonalEdgeStyle;rounded=0;orthogonalLoop=1;jettySize=auto;html=1;" edge="1" parent="1" source="I8TiSBE5ZwDcG0NRmcf--27" target="I8TiSBE5ZwDcG0NRmcf--30">
          <mxGeometry relative="1" as="geometry" />
        </mxCell>
        <mxCell id="I8TiSBE5ZwDcG0NRmcf--27" value="UPLOAD SUCCESS" style="rounded=0;whiteSpace=wrap;html=1;" vertex="1" parent="1">
          <mxGeometry x="1660" y="460" width="120" height="60" as="geometry" />
        </mxCell>
        <mxCell id="I8TiSBE5ZwDcG0NRmcf--56" style="edgeStyle=orthogonalEdgeStyle;rounded=0;orthogonalLoop=1;jettySize=auto;html=1;entryX=0.5;entryY=0;entryDx=0;entryDy=0;" edge="1" parent="1" source="I8TiSBE5ZwDcG0NRmcf--29" target="I8TiSBE5ZwDcG0NRmcf--24">
          <mxGeometry relative="1" as="geometry" />
        </mxCell>
        <mxCell id="I8TiSBE5ZwDcG0NRmcf--29" value="USER RE-UPLOAD CSV FILE THAT HAS BEEN REVISIONED" style="rounded=0;whiteSpace=wrap;html=1;" vertex="1" parent="1">
          <mxGeometry x="1490" y="170" width="120" height="60" as="geometry" />
        </mxCell>
        <mxCell id="I8TiSBE5ZwDcG0NRmcf--59" value="" style="edgeStyle=orthogonalEdgeStyle;rounded=0;orthogonalLoop=1;jettySize=auto;html=1;" edge="1" parent="1" source="I8TiSBE5ZwDcG0NRmcf--30" target="I8TiSBE5ZwDcG0NRmcf--12">
          <mxGeometry relative="1" as="geometry" />
        </mxCell>
        <mxCell id="I8TiSBE5ZwDcG0NRmcf--30" value="CLICK SUBMIT BUTTON" style="rounded=0;whiteSpace=wrap;html=1;" vertex="1" parent="1">
          <mxGeometry x="1850" y="460" width="120" height="60" as="geometry" />
        </mxCell>
        <mxCell id="I8TiSBE5ZwDcG0NRmcf--31" value="" style="verticalLabelPosition=bottom;verticalAlign=top;html=1;shape=mxgraph.flowchart.on-page_reference;" vertex="1" parent="1">
          <mxGeometry x="2180" y="480" width="20" height="20" as="geometry" />
        </mxCell>
        <mxCell id="I8TiSBE5ZwDcG0NRmcf--61" value="" style="edgeStyle=orthogonalEdgeStyle;rounded=0;orthogonalLoop=1;jettySize=auto;html=1;" edge="1" parent="1" source="I8TiSBE5ZwDcG0NRmcf--32" target="I8TiSBE5ZwDcG0NRmcf--10">
          <mxGeometry relative="1" as="geometry" />
        </mxCell>
        <mxCell id="I8TiSBE5ZwDcG0NRmcf--32" value="" style="verticalLabelPosition=bottom;verticalAlign=top;html=1;shape=mxgraph.flowchart.on-page_reference;" vertex="1" parent="1">
          <mxGeometry x="200" y="826" width="20" height="20" as="geometry" />
        </mxCell>
        <mxCell id="I8TiSBE5ZwDcG0NRmcf--44" value="" style="edgeStyle=orthogonalEdgeStyle;rounded=0;orthogonalLoop=1;jettySize=auto;html=1;" edge="1" parent="1" source="I8TiSBE5ZwDcG0NRmcf--37" target="I8TiSBE5ZwDcG0NRmcf--38">
          <mxGeometry relative="1" as="geometry" />
        </mxCell>
        <mxCell id="I8TiSBE5ZwDcG0NRmcf--37" value="SAVE FILE" style="rounded=0;whiteSpace=wrap;html=1;" vertex="1" parent="1">
          <mxGeometry x="450" y="340" width="150" height="60" as="geometry" />
        </mxCell>
        <mxCell id="I8TiSBE5ZwDcG0NRmcf--45" value="" style="edgeStyle=orthogonalEdgeStyle;rounded=0;orthogonalLoop=1;jettySize=auto;html=1;" edge="1" parent="1" source="I8TiSBE5ZwDcG0NRmcf--38" target="I8TiSBE5ZwDcG0NRmcf--4">
          <mxGeometry relative="1" as="geometry" />
        </mxCell>
        <mxCell id="I8TiSBE5ZwDcG0NRmcf--38" value="CHOOSE ACTION TYPE" style="rounded=0;whiteSpace=wrap;html=1;" vertex="1" parent="1">
          <mxGeometry x="650" y="340" width="150" height="60" as="geometry" />
        </mxCell>
        <mxCell id="I8TiSBE5ZwDcG0NRmcf--68" value="END" style="ellipse;whiteSpace=wrap;html=1;" vertex="1" parent="1">
          <mxGeometry x="2847" y="1022" width="120" height="80" as="geometry" />
        </mxCell>
        <mxCell id="I8TiSBE5ZwDcG0NRmcf--70" value="DATA HEADER :&lt;br&gt;&lt;div&gt;&lt;span style=&quot;font-family: &amp;quot;Segoe UI VSS (Regular)&amp;quot;, &amp;quot;Segoe UI&amp;quot;, -apple-system, BlinkMacSystemFont, Roboto, &amp;quot;Helvetica Neue&amp;quot;, Helvetica, Ubuntu, Arial, sans-serif, &amp;quot;Apple Color Emoji&amp;quot;, &amp;quot;Segoe UI Emoji&amp;quot;, &amp;quot;Segoe UI Symbol&amp;quot;; font-size: 14px; text-align: start; background-color: rgb(255, 255, 255);&quot;&gt;&amp;nbsp;&lt;/span&gt;&lt;span style=&quot;box-sizing: border-box; font-family: &amp;quot;Segoe UI VSS (Regular)&amp;quot;, &amp;quot;Segoe UI&amp;quot;, -apple-system, BlinkMacSystemFont, Roboto, &amp;quot;Helvetica Neue&amp;quot;, Helvetica, Ubuntu, Arial, sans-serif, &amp;quot;Apple Color Emoji&amp;quot;, &amp;quot;Segoe UI Emoji&amp;quot;, &amp;quot;Segoe UI Symbol&amp;quot;; font-size: 14px; text-align: start; background-color: rgb(255, 255, 255);&quot;&gt;&lt;b&gt;&amp;nbsp;| ID | Year | COA_Number | COA_Name | Department | Jan | Feb | Mar | Apr | May | Jun | Jul | Aug | Sep | Oct | Nov | Dec |&lt;/b&gt;&lt;br&gt;&lt;br&gt;DATA PAGINATION :&lt;/span&gt;&lt;/div&gt;&lt;div&gt;&lt;span style=&quot;box-sizing: border-box; font-family: &amp;quot;Segoe UI VSS (Regular)&amp;quot;, &amp;quot;Segoe UI&amp;quot;, -apple-system, BlinkMacSystemFont, Roboto, &amp;quot;Helvetica Neue&amp;quot;, Helvetica, Ubuntu, Arial, sans-serif, &amp;quot;Apple Color Emoji&amp;quot;, &amp;quot;Segoe UI Emoji&amp;quot;, &amp;quot;Segoe UI Symbol&amp;quot;; font-size: 14px; text-align: start; background-color: rgb(255, 255, 255);&quot;&gt;10 or 25 or 50&lt;/span&gt;&lt;/div&gt;" style="rounded=0;whiteSpace=wrap;html=1;" vertex="1" parent="1">
          <mxGeometry x="738.75" y="1088.5" width="281.25" height="140" as="geometry" />
        </mxCell>
        <mxCell id="I8TiSBE5ZwDcG0NRmcf--72" value="No" style="text;html=1;align=center;verticalAlign=middle;whiteSpace=wrap;rounded=0;" vertex="1" parent="1">
          <mxGeometry x="519" y="887" width="60" height="30" as="geometry" />
        </mxCell>
        <mxCell id="I8TiSBE5ZwDcG0NRmcf--77" value="" style="edgeStyle=orthogonalEdgeStyle;rounded=0;orthogonalLoop=1;jettySize=auto;html=1;" edge="1" parent="1" source="I8TiSBE5ZwDcG0NRmcf--74" target="I8TiSBE5ZwDcG0NRmcf--76">
          <mxGeometry relative="1" as="geometry" />
        </mxCell>
        <mxCell id="I8TiSBE5ZwDcG0NRmcf--74" value="&lt;div&gt;DATA DITEMUKAN?&lt;/div&gt;" style="rhombus;whiteSpace=wrap;html=1;" vertex="1" parent="1">
          <mxGeometry x="460" y="1103.5" width="150" height="110" as="geometry" />
        </mxCell>
        <mxCell id="I8TiSBE5ZwDcG0NRmcf--76" value="SYTEM SHOW &quot;No Data Found&quot;" style="rounded=0;whiteSpace=wrap;html=1;" vertex="1" parent="1">
          <mxGeometry x="410" y="1253.5" width="251.25" height="80" as="geometry" />
        </mxCell>
        <mxCell id="I8TiSBE5ZwDcG0NRmcf--78" style="edgeStyle=orthogonalEdgeStyle;rounded=0;orthogonalLoop=1;jettySize=auto;html=1;" edge="1" parent="1" source="I8TiSBE5ZwDcG0NRmcf--74" target="I8TiSBE5ZwDcG0NRmcf--70">
          <mxGeometry relative="1" as="geometry" />
        </mxCell>
        <mxCell id="I8TiSBE5ZwDcG0NRmcf--102" value="" style="edgeStyle=orthogonalEdgeStyle;rounded=0;orthogonalLoop=1;jettySize=auto;html=1;" edge="1" parent="1" source="I8TiSBE5ZwDcG0NRmcf--87" target="I8TiSBE5ZwDcG0NRmcf--94">
          <mxGeometry relative="1" as="geometry">
            <Array as="points">
              <mxPoint x="1870" y="1081" />
              <mxPoint x="1870" y="1081" />
            </Array>
          </mxGeometry>
        </mxCell>
        <mxCell id="I8TiSBE5ZwDcG0NRmcf--87" value="FILTER BY COA" style="rounded=0;whiteSpace=wrap;html=1;" vertex="1" parent="1">
          <mxGeometry x="1450" y="1034.5" width="150" height="50" as="geometry" />
        </mxCell>
        <mxCell id="I8TiSBE5ZwDcG0NRmcf--104" style="edgeStyle=orthogonalEdgeStyle;rounded=0;orthogonalLoop=1;jettySize=auto;html=1;entryX=0;entryY=0.5;entryDx=0;entryDy=0;" edge="1" parent="1" source="I8TiSBE5ZwDcG0NRmcf--88" target="I8TiSBE5ZwDcG0NRmcf--92">
          <mxGeometry relative="1" as="geometry" />
        </mxCell>
        <mxCell id="I8TiSBE5ZwDcG0NRmcf--88" value="FILTER BY DEPARTMENT" style="rounded=0;whiteSpace=wrap;html=1;" vertex="1" parent="1">
          <mxGeometry x="1450" y="1238.5" width="150" height="50" as="geometry" />
        </mxCell>
        <mxCell id="I8TiSBE5ZwDcG0NRmcf--105" style="edgeStyle=orthogonalEdgeStyle;rounded=0;orthogonalLoop=1;jettySize=auto;html=1;" edge="1" parent="1" source="I8TiSBE5ZwDcG0NRmcf--89" target="I8TiSBE5ZwDcG0NRmcf--90">
          <mxGeometry relative="1" as="geometry" />
        </mxCell>
        <mxCell id="I8TiSBE5ZwDcG0NRmcf--89" value="DROPDOWN" style="rounded=0;whiteSpace=wrap;html=1;" vertex="1" parent="1">
          <mxGeometry x="1640" y="810" width="150" height="51" as="geometry" />
        </mxCell>
        <mxCell id="I8TiSBE5ZwDcG0NRmcf--90" value="CHOOSE YEAR" style="rounded=0;whiteSpace=wrap;html=1;" vertex="1" parent="1">
          <mxGeometry x="1820" y="810" width="150" height="51" as="geometry" />
        </mxCell>
        <mxCell id="I8TiSBE5ZwDcG0NRmcf--114" value="" style="edgeStyle=orthogonalEdgeStyle;rounded=0;orthogonalLoop=1;jettySize=auto;html=1;" edge="1" parent="1" source="I8TiSBE5ZwDcG0NRmcf--91" target="I8TiSBE5ZwDcG0NRmcf--16">
          <mxGeometry relative="1" as="geometry" />
        </mxCell>
        <mxCell id="I8TiSBE5ZwDcG0NRmcf--91" value="DATA HAS BEEN&lt;div&gt;FILTERED&lt;/div&gt;" style="rounded=0;whiteSpace=wrap;html=1;" vertex="1" parent="1">
          <mxGeometry x="2152" y="1036.5" width="150" height="51" as="geometry" />
        </mxCell>
        <mxCell id="I8TiSBE5ZwDcG0NRmcf--106" style="edgeStyle=orthogonalEdgeStyle;rounded=0;orthogonalLoop=1;jettySize=auto;html=1;" edge="1" parent="1" source="I8TiSBE5ZwDcG0NRmcf--92" target="I8TiSBE5ZwDcG0NRmcf--93">
          <mxGeometry relative="1" as="geometry" />
        </mxCell>
        <mxCell id="I8TiSBE5ZwDcG0NRmcf--92" value="DROPDOWN" style="rounded=0;whiteSpace=wrap;html=1;" vertex="1" parent="1">
          <mxGeometry x="1640" y="1238.5" width="150" height="51" as="geometry" />
        </mxCell>
        <mxCell id="I8TiSBE5ZwDcG0NRmcf--93" value="CHOOSE DEPARTMENT" style="rounded=0;whiteSpace=wrap;html=1;" vertex="1" parent="1">
          <mxGeometry x="1820" y="1238.5" width="150" height="51" as="geometry" />
        </mxCell>
        <mxCell id="I8TiSBE5ZwDcG0NRmcf--94" value="TYPE COA NUMBER&amp;nbsp;&lt;div&gt;OR COA NAME&lt;/div&gt;" style="rounded=0;whiteSpace=wrap;html=1;" vertex="1" parent="1">
          <mxGeometry x="1820" y="1034.5" width="150" height="51" as="geometry" />
        </mxCell>
        <mxCell id="I8TiSBE5ZwDcG0NRmcf--95" value="" style="endArrow=none;html=1;rounded=0;exitX=1;exitY=0.5;exitDx=0;exitDy=0;" edge="1" parent="1" source="I8TiSBE5ZwDcG0NRmcf--13">
          <mxGeometry width="50" height="50" relative="1" as="geometry">
            <mxPoint x="1220" y="846" as="sourcePoint" />
            <mxPoint x="1240" y="1070" as="targetPoint" />
            <Array as="points">
              <mxPoint x="1040" y="840" />
            </Array>
          </mxGeometry>
        </mxCell>
        <mxCell id="I8TiSBE5ZwDcG0NRmcf--96" value="" style="endArrow=none;html=1;rounded=0;" edge="1" parent="1">
          <mxGeometry width="50" height="50" relative="1" as="geometry">
            <mxPoint x="1370" y="1266" as="sourcePoint" />
            <mxPoint x="1370" y="833" as="targetPoint" />
          </mxGeometry>
        </mxCell>
        <mxCell id="I8TiSBE5ZwDcG0NRmcf--97" value="" style="endArrow=classic;html=1;rounded=0;entryX=0;entryY=0.5;entryDx=0;entryDy=0;" edge="1" parent="1" target="I8TiSBE5ZwDcG0NRmcf--15">
          <mxGeometry width="50" height="50" relative="1" as="geometry">
            <mxPoint x="1370" y="836" as="sourcePoint" />
            <mxPoint x="1440" y="900" as="targetPoint" />
          </mxGeometry>
        </mxCell>
        <mxCell id="I8TiSBE5ZwDcG0NRmcf--99" value="" style="endArrow=classic;html=1;rounded=0;entryX=0;entryY=0.5;entryDx=0;entryDy=0;" edge="1" parent="1" target="I8TiSBE5ZwDcG0NRmcf--88">
          <mxGeometry width="50" height="50" relative="1" as="geometry">
            <mxPoint x="1370" y="1264" as="sourcePoint" />
            <mxPoint x="1460" y="906.75" as="targetPoint" />
          </mxGeometry>
        </mxCell>
        <mxCell id="I8TiSBE5ZwDcG0NRmcf--109" value="" style="endArrow=none;html=1;rounded=0;" edge="1" parent="1">
          <mxGeometry width="50" height="50" relative="1" as="geometry">
            <mxPoint x="2040" y="1267" as="sourcePoint" />
            <mxPoint x="2040" y="831.5" as="targetPoint" />
          </mxGeometry>
        </mxCell>
        <mxCell id="I8TiSBE5ZwDcG0NRmcf--110" value="" style="endArrow=none;html=1;rounded=0;exitX=1.003;exitY=0.539;exitDx=0;exitDy=0;exitPerimeter=0;" edge="1" parent="1" source="I8TiSBE5ZwDcG0NRmcf--94">
          <mxGeometry width="50" height="50" relative="1" as="geometry">
            <mxPoint x="2010" y="950" as="sourcePoint" />
            <mxPoint x="2040" y="1062" as="targetPoint" />
          </mxGeometry>
        </mxCell>
        <mxCell id="I8TiSBE5ZwDcG0NRmcf--111" value="" style="endArrow=none;html=1;rounded=0;exitX=1.003;exitY=0.539;exitDx=0;exitDy=0;exitPerimeter=0;" edge="1" parent="1">
          <mxGeometry width="50" height="50" relative="1" as="geometry">
            <mxPoint x="1970" y="835.38" as="sourcePoint" />
            <mxPoint x="2040" y="835.38" as="targetPoint" />
          </mxGeometry>
        </mxCell>
        <mxCell id="I8TiSBE5ZwDcG0NRmcf--113" value="" style="endArrow=classic;html=1;rounded=0;entryX=0;entryY=0.5;entryDx=0;entryDy=0;" edge="1" parent="1" target="I8TiSBE5ZwDcG0NRmcf--91">
          <mxGeometry width="50" height="50" relative="1" as="geometry">
            <mxPoint x="2040" y="1061.5" as="sourcePoint" />
            <mxPoint x="2100" y="1071.5" as="targetPoint" />
          </mxGeometry>
        </mxCell>
        <mxCell id="I8TiSBE5ZwDcG0NRmcf--121" value="" style="endArrow=classic;html=1;rounded=0;entryX=0.002;entryY=0.574;entryDx=0;entryDy=0;entryPerimeter=0;" edge="1" parent="1" target="I8TiSBE5ZwDcG0NRmcf--87">
          <mxGeometry width="50" height="50" relative="1" as="geometry">
            <mxPoint x="1370" y="1063" as="sourcePoint" />
            <mxPoint x="1450" y="901" as="targetPoint" />
          </mxGeometry>
        </mxCell>
        <mxCell id="I8TiSBE5ZwDcG0NRmcf--123" value="" style="endArrow=none;html=1;rounded=0;exitX=1.003;exitY=0.539;exitDx=0;exitDy=0;exitPerimeter=0;" edge="1" parent="1">
          <mxGeometry width="50" height="50" relative="1" as="geometry">
            <mxPoint x="1970" y="1263.47" as="sourcePoint" />
            <mxPoint x="2040" y="1263.47" as="targetPoint" />
          </mxGeometry>
        </mxCell>
        <mxCell id="I8TiSBE5ZwDcG0NRmcf--129" style="edgeStyle=orthogonalEdgeStyle;rounded=0;orthogonalLoop=1;jettySize=auto;html=1;entryX=0.378;entryY=0.989;entryDx=0;entryDy=0;entryPerimeter=0;exitX=0.5;exitY=1;exitDx=0;exitDy=0;" edge="1" parent="1" source="I8TiSBE5ZwDcG0NRmcf--16" target="I8TiSBE5ZwDcG0NRmcf--91">
          <mxGeometry relative="1" as="geometry">
            <mxPoint x="2422" y="1191" as="sourcePoint" />
            <Array as="points">
              <mxPoint x="2417" y="1151" />
              <mxPoint x="2209" y="1151" />
            </Array>
          </mxGeometry>
        </mxCell>
      </root>
    </mxGraphModel>
  </diagram>
</mxfile>
